<svg xmlns="http://www.w3.org/2000/svg" width="36" height="26" viewBox="0 0 36 26">
  <metadata><?xpacket begin="﻿" id="W5M0MpCehiHzreSzNTczkc9d"?>
<x:xmpmeta xmlns:x="adobe:ns:meta/" x:xmptk="Adobe XMP Core 5.6-c140 79.160451, 2017/05/06-01:08:21        ">
   <rdf:RDF xmlns:rdf="http://www.w3.org/1999/02/22-rdf-syntax-ns#">
      <rdf:Description rdf:about=""/>
   </rdf:RDF>
</x:xmpmeta>
                                                                                                    
                                                                                                    
                                                                                                    
                                                                                                    
                                                                                                    
                                                                                                    
                                                                                                    
                                                                                                    
                                                                                                    
                                                                                                    
                                                                                                    
                                                                                                    
                                                                                                    
                                                                                                    
                                                                                                    
                                                                                                    
                                                                                                    
                                                                                                    
                                                                                                    
                                                                                                    
                           
<?xpacket end="w"?></metadata>
<defs>
    <style>
      .cls-1 {
        fill: #37b34a;
        fill-rule: evenodd;
      }
    </style>
  </defs>
  <path id="playlist_ico" class="cls-1" d="M569.119,1077.96a1.665,1.665,0,1,1,0-3.33h23.189a1.665,1.665,0,1,1,0,3.33H569.119Zm0-11.3a1.665,1.665,0,1,1,0-3.33h23.189a1.665,1.665,0,1,1,0,3.33H569.119Zm0-11.3a1.665,1.665,0,1,1,0-3.33h23.189a1.665,1.665,0,1,1,0,3.33H569.119Zm-9.376.07a1.71,1.71,0,1,1,1.747-1.71A1.732,1.732,0,0,1,559.743,1055.43Zm0,11.27a1.71,1.71,0,1,1,1.746-1.71A1.725,1.725,0,0,1,559.743,1066.7Zm0,11.3a1.71,1.71,0,1,1,1.747-1.71A1.726,1.726,0,0,1,559.743,1078Z" transform="translate(-558 -1052)"/>
</svg>
