<svg xmlns="http://www.w3.org/2000/svg" width="30" height="26" viewBox="0 0 30 26">
  <metadata><?xpacket begin="﻿" id="W5M0MpCehiHzreSzNTczkc9d"?>
<x:xmpmeta xmlns:x="adobe:ns:meta/" x:xmptk="Adobe XMP Core 5.6-c140 79.160451, 2017/05/06-01:08:21        ">
   <rdf:RDF xmlns:rdf="http://www.w3.org/1999/02/22-rdf-syntax-ns#">
      <rdf:Description rdf:about=""/>
   </rdf:RDF>
</x:xmpmeta>
                                                                                                    
                                                                                                    
                                                                                                    
                                                                                                    
                                                                                                    
                                                                                                    
                                                                                                    
                                                                                                    
                                                                                                    
                                                                                                    
                                                                                                    
                                                                                                    
                                                                                                    
                                                                                                    
                                                                                                    
                                                                                                    
                                                                                                    
                                                                                                    
                                                                                                    
                                                                                                    
                           
<?xpacket end="w"?></metadata>
<defs>
    <style>
      .cls-1 {
        fill: #b3b3b3;
        fill-rule: evenodd;
      }
    </style>
  </defs>
  <path id="previous_ico" class="cls-1" d="M665.129,765A4.895,4.895,0,0,1,670,769.9V786.1a4.851,4.851,0,0,1-7.441,4.15l-7.528-4.718a1.168,1.168,0,0,1,.615-2.157,1.148,1.148,0,0,1,.613.177l7.529,4.718a2.544,2.544,0,0,0,3.89-2.17V769.9a2.535,2.535,0,0,0-3.89-2.17l-12.933,8.1a2.565,2.565,0,0,0,0,4.339,1.171,1.171,0,0,1,.371,1.608,1.158,1.158,0,0,1-1.6.373,4.9,4.9,0,0,1,0-8.3l12.932-8.105A4.848,4.848,0,0,1,665.129,765Zm-23.8,0a1.328,1.328,0,0,1,1.328,1.328v23.344a1.328,1.328,0,0,1-2.656,0V766.328A1.329,1.329,0,0,1,641.328,765Z" transform="translate(-640 -765)"/>
</svg>
