<svg xmlns="http://www.w3.org/2000/svg" width="26" height="26" viewBox="0 0 26 26">
  <metadata><?xpacket begin="﻿" id="W5M0MpCehiHzreSzNTczkc9d"?>
<x:xmpmeta xmlns:x="adobe:ns:meta/" x:xmptk="Adobe XMP Core 5.6-c140 79.160451, 2017/05/06-01:08:21        ">
   <rdf:RDF xmlns:rdf="http://www.w3.org/1999/02/22-rdf-syntax-ns#">
      <rdf:Description rdf:about=""/>
   </rdf:RDF>
</x:xmpmeta>
                                                                                                    
                                                                                                    
                                                                                                    
                                                                                                    
                                                                                                    
                                                                                                    
                                                                                                    
                                                                                                    
                                                                                                    
                                                                                                    
                                                                                                    
                                                                                                    
                                                                                                    
                                                                                                    
                                                                                                    
                                                                                                    
                                                                                                    
                                                                                                    
                                                                                                    
                                                                                                    
                           
<?xpacket end="w"?></metadata>
<defs>
    <style>
      .cls-1 {
        fill: #b3b3b3;
        fill-rule: evenodd;
      }
    </style>
  </defs>
  <path id="repeat_ico" class="cls-1" d="M1012.06,780.553a1.069,1.069,0,0,1-1.06-1.069V776.5a8.53,8.53,0,0,1,8.52-8.524h12.35v-2.659a0.326,0.326,0,0,1,.32-0.323,0.33,0.33,0,0,1,.19.1l4.5,3.758a0.321,0.321,0,0,1-.02.445L1032.41,773a0.345,0.345,0,0,1-.23.1,0.324,0.324,0,0,1-.31-0.323v-2.659h-12.35a6.4,6.4,0,0,0-6.39,6.387v2.982A1.071,1.071,0,0,1,1012.06,780.553Zm3.75,10.437a0.311,0.311,0,0,1-.2-0.1l-4.51-3.757a0.361,0.361,0,0,1-.07-0.218,0.326,0.326,0,0,1,.1-0.227l4.45-3.707a0.307,0.307,0,0,1,.53.227v2.66h12.36a6.39,6.39,0,0,0,6.38-6.388V776.5a1.07,1.07,0,0,1,2.14,0v2.982a8.53,8.53,0,0,1-8.52,8.524h-12.36v2.66A0.316,0.316,0,0,1,1015.81,790.99Z" transform="translate(-1011 -765)"/>
</svg>
