<svg xmlns="http://www.w3.org/2000/svg" width="26" height="26" viewBox="0 0 26 26">
  <metadata><?xpacket begin="﻿" id="W5M0MpCehiHzreSzNTczkc9d"?>
<x:xmpmeta xmlns:x="adobe:ns:meta/" x:xmptk="Adobe XMP Core 5.6-c140 79.160451, 2017/05/06-01:08:21        ">
   <rdf:RDF xmlns:rdf="http://www.w3.org/1999/02/22-rdf-syntax-ns#">
      <rdf:Description rdf:about=""/>
   </rdf:RDF>
</x:xmpmeta>
                                                                                                    
                                                                                                    
                                                                                                    
                                                                                                    
                                                                                                    
                                                                                                    
                                                                                                    
                                                                                                    
                                                                                                    
                                                                                                    
                                                                                                    
                                                                                                    
                                                                                                    
                                                                                                    
                                                                                                    
                                                                                                    
                                                                                                    
                                                                                                    
                                                                                                    
                                                                                                    
                           
<?xpacket end="w"?></metadata>
<defs>
    <style>
      .cls-1 {
        fill: #b3b3b3;
        fill-rule: evenodd;
      }
    </style>
  </defs>
  <path id="shuffle_ico" class="cls-1" d="M584.225,790.988a0.322,0.322,0,0,1-.318-0.322v-2.639l-0.4-.02a10.1,10.1,0,0,1-9.032-6.853l-1.89-5.653a7.883,7.883,0,0,0-7.49-5.388H564.06a1.069,1.069,0,1,1,0-2.137h1.03a10.021,10.021,0,0,1,9.5,6.875l1.891,5.653a7.86,7.86,0,0,0,6.978,5.365l0.451,0.029V783.21a0.323,0.323,0,0,1,.323-0.323h0a0.332,0.332,0,0,1,.241.09l4.248,3.534,0.178,0.2a0.336,0.336,0,0,1,.105.244,0.33,0.33,0,0,1-.1.227l-4.459,3.707A0.336,0.336,0,0,1,584.225,790.988Zm0-17.893a0.322,0.322,0,0,1-.32-0.323v-2.689l-0.453.031a7.944,7.944,0,0,0-4.7,1.97,1.07,1.07,0,0,1-.706.266h0a1.092,1.092,0,0,1-.849-0.368,1.066,1.066,0,0,1,.106-1.507,10.2,10.2,0,0,1,6.206-2.5l0.4-.02v-2.639a0.285,0.285,0,0,1,.5-0.224l4.519,3.762a0.324,0.324,0,0,1-.023.444l-4.459,3.708A0.334,0.334,0,0,1,584.227,773.1ZM564.06,788.006a1.068,1.068,0,1,1,0-2.136h1.03a7.937,7.937,0,0,0,4.875-1.68l0.064-.046a1.072,1.072,0,0,1,1.457.161,1.067,1.067,0,0,1-.119,1.506,10.106,10.106,0,0,1-6.277,2.195h-1.03Z" transform="translate(-563 -765)"/>
</svg>
